<svg width="49" height="48" viewBox="0 0 49 48" fill="none" xmlns="http://www.w3.org/2000/svg">
<path d="M39.1303 26.5554H10.3011L5.33464 43.1103L39.1303 26.5554ZM10.3013 21.8887H39.1315L5.33464 5.33317L10.3013 21.8887ZM0.864787 6.67413C0.124197 4.2055 1.52505 1.60391 3.99369 0.863319C5.11973 0.525505 6.33179 0.625143 7.38756 1.14231L45.9471 20.0309C48.2617 21.1647 49.2189 23.9601 48.0851 26.2747C47.6294 27.2048 46.8773 27.957 45.9471 28.4126L7.38756 47.3012C5.07301 48.435 2.27758 47.4778 1.14378 45.1632C0.626612 44.1075 0.526976 42.8954 0.86479 41.7694L6.12908 24.2218L0.864787 6.67413Z" fill="#020202"/>
</svg>
